<svg width="27" height="27" viewBox="0 0 27 27" fill="none" xmlns="http://www.w3.org/2000/svg">
<g clip-path="url(#clip0_472_55)">
<path d="M6.75 7.875C6.75 6.38316 7.34263 4.95242 8.39752 3.89752C9.45242 2.84263 10.8832 2.25 12.375 2.25C13.8668 2.25 15.2976 2.84263 16.3525 3.89752C17.4074 4.95242 18 6.38316 18 7.875C18 9.36684 17.4074 10.7976 16.3525 11.8525C15.2976 12.9074 13.8668 13.5 12.375 13.5C10.8832 13.5 9.45242 12.9074 8.39752 11.8525C7.34263 10.7976 6.75 9.36684 6.75 7.875ZM5.42475 16.506C7.22813 15.4058 9.68062 14.625 12.375 14.625C12.8779 14.625 13.3729 14.652 13.8555 14.7038C14.0487 14.7245 14.2333 14.7949 14.3912 14.9082C14.5492 15.0215 14.675 15.1737 14.7566 15.3501C14.8382 15.5265 14.8727 15.7211 14.8567 15.9148C14.8407 16.1085 14.7749 16.2947 14.6655 16.4554C13.9034 17.5739 13.4972 18.8966 13.5 20.25C13.5 21.285 13.7329 22.2638 14.1469 23.1379C14.2275 23.3082 14.2641 23.496 14.2533 23.6841C14.2425 23.8722 14.1846 24.0546 14.0849 24.2145C13.9853 24.3744 13.847 24.5068 13.6829 24.5993C13.5188 24.6919 13.334 24.7418 13.1456 24.7444L12.375 24.75C9.86737 24.75 7.49812 24.5925 5.72287 24.1223C4.83975 23.8883 4.00838 23.553 3.37838 23.0468C2.71125 22.5113 2.25 21.7631 2.25 20.8125C2.25 19.9271 2.65275 19.0991 3.1995 18.4061C3.75525 17.703 4.52363 17.0561 5.42475 16.5049V16.506ZM20.25 15.75C20.5484 15.75 20.8345 15.8685 21.0455 16.0795C21.2565 16.2905 21.375 16.5766 21.375 16.875V20.25C21.375 20.5484 21.2565 20.8345 21.0455 21.0455C20.8345 21.2565 20.5484 21.375 20.25 21.375C19.9516 21.375 19.6655 21.2565 19.4545 21.0455C19.2435 20.8345 19.125 20.5484 19.125 20.25V16.875C19.125 16.5766 19.2435 16.2905 19.4545 16.0795C19.6655 15.8685 19.9516 15.75 20.25 15.75ZM20.25 22.5C19.9633 22.5003 19.6875 22.6101 19.479 22.807C19.2705 23.0038 19.145 23.2728 19.1282 23.5591C19.1114 23.8453 19.2045 24.1272 19.3885 24.3471C19.5726 24.5669 19.8336 24.7083 20.1184 24.7421L20.2523 24.75C20.539 24.7497 20.8148 24.6399 21.0233 24.443C21.2318 24.2462 21.3573 23.9772 21.3741 23.6909C21.3909 23.4047 21.2977 23.1228 21.1137 22.9029C20.9297 22.6831 20.6686 22.5417 20.3839 22.5079L20.25 22.5Z" fill="#F70606"/>
</g>
<defs>
<clipPath id="clip0_472_55">
<rect width="27" height="27" fill="white"/>
</clipPath>
</defs>
</svg>
