<svg width="31" height="32" viewBox="0 0 31 32" fill="none" xmlns="http://www.w3.org/2000/svg">
<g id="Frame">
<path id="Vector" d="M19.1296 2.27148L21.3467 5.69957L25.4245 5.90365L25.6305 9.9808L29.0606 12.196L27.1999 15.8308L29.0625 19.4636L25.6344 21.6807L25.4303 25.7585L21.3532 25.9645L19.138 29.3945L15.5032 27.5339L11.8704 29.3965L9.65327 25.9684L5.57548 25.7643L5.36946 21.6872L1.93944 19.472L3.80008 15.8372L1.9375 12.2044L5.36558 9.98725L5.56967 5.90946L9.64681 5.70344L11.862 2.27342L15.4968 4.13407L19.1296 2.27148Z" fill="#42A5F5"/>
<path id="Vector_2" d="M13.818 20.5195L9.62207 16.3248L10.9925 14.955L13.8387 17.8012L20.018 11.8117L21.3665 13.2029L13.818 20.5195Z" fill="white"/>
</g>
</svg>
