<svg width="19" height="19" viewBox="0 0 19 19" fill="none" xmlns="http://www.w3.org/2000/svg">
<path d="M8.26457 2.01036C8.5693 1.10045 9.85631 1.10045 10.161 2.01036L11.508 6.03234C11.6435 6.43685 12.0207 6.71089 12.4472 6.71473L16.6886 6.75292C17.6482 6.76156 18.0459 7.98558 17.2747 8.55657L13.8658 11.0805C13.5229 11.3343 13.3788 11.7777 13.507 12.1846L14.7813 16.2302C15.0696 17.1454 14.0284 17.9019 13.2471 17.3449L9.79328 14.8828C9.44591 14.6352 8.9797 14.6352 8.63233 14.8828L5.17854 17.3449C4.39717 17.9019 3.35596 17.1454 3.64426 16.2302L4.91859 12.1846C5.04676 11.7777 4.90269 11.3343 4.55984 11.0805L1.15095 8.55657C0.379742 7.98558 0.777447 6.76156 1.73699 6.75292L5.97836 6.71473C6.40494 6.71089 6.78211 6.43685 6.91759 6.03234L8.26457 2.01036Z" stroke="#535353" stroke-width="1.5" stroke-linecap="round" stroke-linejoin="round"/>
</svg>
