<svg width="30" height="40" viewBox="0 0 30 40" fill="none" xmlns="http://www.w3.org/2000/svg">
<mask id="path-1-inside-1_472_96" fill="white">
<path d="M15.4526 0L0 6.59575L0.317655 6.42947V35.2593L15.4526 40L30 35.2594V6.42958L15.4526 0ZM15 5C15 6.10702 15 7.06383 15 6C17.4057 6.24202 18.0894 6.7275 18.5 9.0625C18.2677 10.1582 18.1577 11.6126 17.3647 12.3538C23.011 13.1772 23.0668 15.2924 23.5 21.875H20.0858V32.4268H18L14.625 25.9375L12.375 32.4268H9.88843V21.875H7C7 15.9307 6.20667 13.095 12.375 12.3538C11.6216 11.6216 11.724 10.1258 11.5 9.0625C11.8906 6.72208 12.375 6 15 6C15 7.06383 15 7.17085 15 5Z"/>
</mask>
<path d="M15.4526 0L16.059 -1.37197L15.463 -1.63537L14.8637 -1.37958L15.4526 0ZM0 6.59575L-0.695621 5.26679L0.588857 7.97533L0 6.59575ZM0.317655 6.42947H1.81766V3.95126L-0.377965 5.10052L0.317655 6.42947ZM0.317655 35.2593H-1.18234V36.3613L-0.130711 36.6907L0.317655 35.2593ZM15.4526 40L15.0042 41.4314L15.4616 41.5747L15.9174 41.4262L15.4526 40ZM30 35.2594L30.4648 36.6856L31.5 36.3482V35.2594H30ZM30 6.42958H31.5V5.45257L30.6064 5.05761L30 6.42958ZM15 6L15.1502 4.50753L15.0753 4.5H15V6ZM18.5 9.0625L19.9674 9.37356L20.0277 9.0891L19.9773 8.80272L18.5 9.0625ZM17.3647 12.3538L16.3404 11.258L14.0616 13.388L17.1482 13.8381L17.3647 12.3538ZM23.5 21.875V23.375H25.102L24.9968 21.7765L23.5 21.875ZM20.0858 21.875V20.375H18.5858V21.875H20.0858ZM20.0858 32.4268V33.9268H21.5858V32.4268H20.0858ZM9.88843 32.4268H8.38843V33.9268H9.88843V32.4268ZM9.88843 21.875H11.3884V20.375H9.88843V21.875ZM7 21.875H5.5V23.375H7V21.875ZM12.375 12.3538L12.5539 13.8431L15.6738 13.4683L13.4205 11.2782L12.375 12.3538ZM11.5 9.0625L10.0205 8.8156L9.97387 9.09479L10.0322 9.37176L11.5 9.0625ZM14.625 25.9375L15.9558 25.2454L14.3487 22.1554L13.2078 25.4461L14.625 25.9375ZM18 32.4268L16.6692 33.1189L17.0894 33.9268H18V32.4268ZM12.375 32.4268V33.9268H13.4425L13.7922 32.9182L12.375 32.4268ZM14.8637 -1.37958L-0.588857 5.21616L0.588857 7.97533L16.0415 1.37958L14.8637 -1.37958ZM0.695621 7.9247L1.01328 7.75842L-0.377965 5.10052L-0.695621 5.26679L0.695621 7.9247ZM-1.18234 6.42947V35.2593H1.81766V6.42947H-1.18234ZM-0.130711 36.6907L15.0042 41.4314L15.901 38.5686L0.766021 33.8278L-0.130711 36.6907ZM15.9174 41.4262L30.4648 36.6856L29.5352 33.8332L14.9878 38.5738L15.9174 41.4262ZM31.5 35.2594V6.42958H28.5V35.2594H31.5ZM30.6064 5.05761L16.059 -1.37197L14.8462 1.37197L29.3936 7.80155L30.6064 5.05761ZM13.5 5C13.5 5.55351 13.5 6.06947 13.5 6.31407C13.5 6.37522 13.5 6.41941 13.5 6.44298C13.5 6.45479 13.5 6.4614 13.5 6.4624C13.5 6.46247 13.5 6.46247 13.5 6.46244C13.5 6.46238 14.9995 4.96258 16.5 6.46131C16.5 6.46185 16.5 6.46243 16.5 6.46246C16.5 6.46246 16.5 6.46237 16.5 6.46213C16.5 6.46168 16.5 6.46088 16.5 6.4597C16.5 6.45736 16.5 6.45355 16.5 6.44822C16.5 6.40562 16.5 6.26596 16.5 6H13.5C13.5 6.26596 13.5 6.40563 13.5 6.44823C13.5 6.45356 13.5 6.45737 13.5 6.45972C13.5 6.46089 13.5 6.46171 13.5 6.46217C13.5 6.46237 13.5 6.46256 13.5 6.46266C13.5 6.46271 13.5 6.4633 13.5 6.46384C15.0005 7.96258 16.5 6.46276 16.5 6.46268C16.5 6.46261 16.5 6.46253 16.5 6.46247C16.5 6.46143 16.5 6.45476 16.5 6.44299C16.5 6.41941 16.5 6.37522 16.5 6.31407C16.5 6.06947 16.5 5.55351 16.5 5H13.5ZM14.8499 7.49247C16.0632 7.61454 16.3961 7.77854 16.528 7.8904C16.6206 7.96894 16.826 8.20369 17.0227 9.32228L19.9773 8.80272C19.7634 7.58632 19.4216 6.41082 18.4683 5.60237C17.5543 4.82723 16.3425 4.62749 15.1502 4.50753L14.8499 7.49247ZM17.0326 8.75144C16.8771 9.48507 16.8434 9.88251 16.6918 10.4604C16.5566 10.9753 16.4202 11.1834 16.3404 11.258L18.389 13.4497C19.1022 12.783 19.4173 11.8933 19.5935 11.2218C19.7532 10.6133 19.8906 9.73568 19.9674 9.37356L17.0326 8.75144ZM17.1482 13.8381C19.8401 14.2307 20.6368 14.8582 21.063 15.6593C21.3261 16.1538 21.5204 16.8543 21.6662 17.9279C21.8119 19.0006 21.8934 20.304 22.0032 21.9735L24.9968 21.7765C24.89 20.1547 24.802 18.7253 24.6389 17.5243C24.476 16.3243 24.2222 15.2102 23.7115 14.2502C22.5899 12.1422 20.5355 11.3004 17.5811 10.8695L17.1482 13.8381ZM23.5 20.375H20.0858V23.375H23.5V20.375ZM18.5858 21.875V32.4268H21.5858V21.875H18.5858ZM11.3884 32.4268V21.875H8.38843V32.4268H11.3884ZM8.5 21.875C8.5 20.2872 8.45007 19.1295 8.47213 18.0135C8.49344 16.9352 8.58592 16.2104 8.78081 15.6847C8.9509 15.226 9.20656 14.8954 9.68912 14.6137C10.2281 14.2991 11.103 14.0175 12.5539 13.8431L12.196 10.8645C10.5628 11.0608 9.22381 11.4116 8.17666 12.0229C7.07312 12.6671 6.37056 13.5559 5.96794 14.6418C5.59012 15.6608 5.49541 16.8057 5.47271 17.9542C5.45076 19.0648 5.5 20.4907 5.5 21.875H8.5ZM13.4205 11.2782C13.4296 11.2871 13.398 11.2616 13.3521 11.1421C13.3046 11.0184 13.2601 10.8429 13.2198 10.5933C13.1789 10.34 13.1521 10.0782 13.116 9.75572C13.0826 9.45702 13.0405 9.09818 12.9678 8.75324L10.0322 9.37176C10.0716 9.55847 10.1006 9.78534 10.1346 10.089C10.1659 10.369 10.2025 10.7263 10.2582 11.0713C10.3618 11.7137 10.5803 12.7013 11.3295 13.4295L13.4205 11.2782ZM12.9795 9.3094C13.1828 8.0916 13.3571 7.82479 13.4451 7.74118C13.4879 7.70051 13.7277 7.5 15 7.5V4.5C13.6473 4.5 12.3323 4.66053 11.3791 5.566C10.471 6.42854 10.2078 7.69298 10.0205 8.8156L12.9795 9.3094ZM13.5 6C13.5 6.26596 13.5 6.47211 13.5 6.59783C13.5 6.66069 13.5 6.70343 13.5 6.72349C13.5 6.72851 13.5 6.7321 13.5 6.73425C13.5 6.73531 13.5 6.73603 13.5 6.73637C13.5 6.73646 13.5 6.73654 13.5 6.7366C13.5 6.73663 13.5 6.73671 13.5 6.73676C13.5 6.73722 15.0004 8.23657 16.5 6.73687C16.5 6.73667 16.5 6.73634 16.5 6.73626C16.5 6.7346 16.5 6.72695 16.5 6.71301C16.5 6.60138 16.5 6.08542 16.5 5H13.5C13.5 6.08542 13.5 6.60138 13.5 6.713C13.5 6.72696 13.5 6.73458 13.5 6.7362C13.5 6.73653 13.5 6.73643 13.5 6.73627C14.9996 5.23657 16.5 6.73592 16.5 6.73637C16.5 6.73641 16.5 6.73645 16.5 6.73645C16.5 6.73644 16.5 6.73639 16.5 6.73631C16.5 6.73599 16.5 6.7353 16.5 6.73423C16.5 6.73209 16.5 6.7285 16.5 6.72348C16.5 6.70343 16.5 6.66069 16.5 6.59783C16.5 6.47211 16.5 6.26596 16.5 6H13.5ZM9.88843 20.375H7V23.375H9.88843V20.375ZM20.0858 30.9268H18V33.9268H20.0858V30.9268ZM19.3308 31.7347L15.9558 25.2454L13.2942 26.6296L16.6692 33.1189L19.3308 31.7347ZM13.2078 25.4461L10.9578 31.9354L13.7922 32.9182L16.0422 26.4289L13.2078 25.4461ZM12.375 30.9268H9.88843V33.9268H12.375V30.9268Z" fill="#014532" mask="url(#path-1-inside-1_472_96)"/>
</svg>
