<svg width="33" height="30" viewBox="0 0 33 30" fill="none" xmlns="http://www.w3.org/2000/svg">
<path d="M30.9375 21.7969H29.6484V6.59532L31.0999 6.3129C31.3006 6.27374 31.476 6.16371 31.5874 6.00701C31.6988 5.85032 31.7372 5.65979 31.6942 5.47735C31.6511 5.29491 31.5301 5.1355 31.3577 5.03419C31.1853 4.93288 30.9758 4.89796 30.7751 4.93712L1.90007 10.5621C1.69939 10.6013 1.52403 10.7113 1.41259 10.868C1.30114 11.0247 1.26274 11.2152 1.30581 11.3977C1.34889 11.5801 1.46992 11.7395 1.64229 11.8408C1.81465 11.9421 2.02423 11.9771 2.22491 11.9379L3.35155 11.7188V21.7969H2.06249C1.85736 21.7969 1.66064 21.871 1.51559 22.0028C1.37054 22.1347 1.28906 22.3135 1.28906 22.5C1.28906 22.6865 1.37054 22.8653 1.51559 22.9972C1.66064 23.1291 1.85736 23.2031 2.06249 23.2031H30.9375C31.1426 23.2031 31.3393 23.1291 31.4844 22.9972C31.6294 22.8653 31.7109 22.6865 31.7109 22.5C31.7109 22.3135 31.6294 22.1347 31.4844 22.0028C31.3393 21.871 31.1426 21.7969 30.9375 21.7969ZM4.89843 11.4164L28.1016 6.89649V21.7969H24.4922V15C24.4922 14.8135 24.4107 14.6347 24.2656 14.5028C24.1206 14.371 23.9239 14.2969 23.7187 14.2969H9.28124C9.07611 14.2969 8.87939 14.371 8.73434 14.5028C8.58929 14.6347 8.50781 14.8135 8.50781 15V21.7969H4.89843V11.4164ZM22.9453 18.0469H10.0547V15.7031H22.9453V18.0469ZM10.0547 19.4531H22.9453V21.7969H10.0547V19.4531Z" fill="#015432"/>
</svg>
