<svg width="35" height="35" viewBox="0 0 35 35" fill="none" xmlns="http://www.w3.org/2000/svg">
<path d="M21.8894 7.29457C20.0403 4.6477 16.603 2.91666 13.1307 2.91666C10.422 2.91666 7.82417 3.99259 5.90868 5.9078C3.99319 7.82301 2.91689 10.4207 2.9165 13.1294C2.9165 18.5252 7.10192 22.9673 12.4015 23.3421" stroke="#014532" stroke-width="1.5" stroke-linecap="round" stroke-linejoin="round"/>
<path d="M13.1323 10.2112V13.8585L10.9434 15.3169M18.3969 22.6756C16.4121 20.2606 16.0723 17.834 18.9132 14.8896C21.8969 12.2281 23.6148 10.9696 24.0727 10.2112C24.5307 10.9696 26.2763 12.2281 29.26 14.8896C31.9638 17.3017 31.7946 20.2592 29.8098 22.6756M18.3969 22.6756H17.6342M18.3969 22.6756H29.8098M29.8098 22.6756H30.4807M17.6342 22.6756H16.0723M17.6342 22.6756V30.7606C17.6925 31.7348 17.6342 32.1898 19.4002 32.0615H24.045M30.4807 22.6756H32.0834M30.4807 22.6756L30.4792 30.9094C30.6498 32.2321 29.5969 32.0002 28.9232 32.0615H24.0436L24.0946 28.9494" stroke="#014532" stroke-width="1.5" stroke-linecap="round" stroke-linejoin="round"/>
</svg>
