<svg width="25" height="25" viewBox="0 0 25 25" fill="none" xmlns="http://www.w3.org/2000/svg">
<path d="M16.6668 10.4167V7.29168M10.4168 7.29168V10.4167H7.29183M10.4168 16.6667H7.29183M2.0835 22.2917V2.70834C2.0835 2.54258 2.14934 2.38361 2.26655 2.2664C2.38376 2.14919 2.54274 2.08334 2.7085 2.08334H22.2918C22.4576 2.08334 22.6166 2.14919 22.7338 2.2664C22.851 2.38361 22.9168 2.54258 22.9168 2.70834V9.79168C22.9168 9.95744 22.851 10.1164 22.7338 10.2336C22.6166 10.3508 22.4576 10.4167 22.2918 10.4167H11.0418C10.8761 10.4167 10.7171 10.4825 10.5999 10.5997C10.4827 10.7169 10.4168 10.8759 10.4168 11.0417V22.2917C10.4168 22.3738 10.4007 22.455 10.3693 22.5309C10.3378 22.6067 10.2918 22.6756 10.2338 22.7336C10.1757 22.7917 10.1068 22.8377 10.031 22.8691C9.95518 22.9005 9.87391 22.9167 9.79183 22.9167H2.7085C2.62642 22.9167 2.54515 22.9005 2.46932 22.8691C2.39349 22.8377 2.32459 22.7917 2.26655 22.7336C2.20852 22.6756 2.16248 22.6067 2.13107 22.5309C2.09966 22.455 2.0835 22.3738 2.0835 22.2917Z" stroke="#014532" stroke-width="2" stroke-linecap="round" stroke-linejoin="round"/>
</svg>
