<svg width="24" height="24" viewBox="0 0 24 24" fill="none" xmlns="http://www.w3.org/2000/svg">
<path d="M21 18V12C21 10.8954 20.1046 10 19 10M21 18H3M21 18H18V20C18 20.5523 18.4477 21 19 21H20C20.5523 21 21 20.5523 21 20V18ZM3 18V12C3 10.8954 3.89543 10 5 10M3 18H6V20C6 20.5523 5.55228 21 5 21H4C3.44772 21 3 20.5523 3 20V18ZM19 10H5M19 10V5.57143C19 4.15127 17.8487 3 16.4286 3H7.57143C6.15127 3 5 4.15127 5 5.57143V10M3 8H5M19 8H21" stroke="#014532" stroke-width="1.5" stroke-linecap="round" stroke-linejoin="round"/>
<path d="M16.5 14.75C16.0858 14.75 15.75 14.4142 15.75 14C15.75 13.5858 16.0858 13.25 16.5 13.25C16.9142 13.25 17.25 13.5858 17.25 14C17.25 14.4142 16.9142 14.75 16.5 14.75ZM7.5 14.75C7.08579 14.75 6.75 14.4142 6.75 14C6.75 13.5858 7.08579 13.25 7.5 13.25C7.91421 13.25 8.25 13.5858 8.25 14C8.25 14.4142 7.91421 14.75 7.5 14.75Z" stroke="#404040" stroke-width="1.5"/>
</svg>
